<?xml version="1.0" standalone="no"?>
<!DOCTYPE svg PUBLIC "-//W3C//DTD SVG 20010904//EN"
 "http://www.w3.org/TR/2001/REC-SVG-20010904/DTD/svg10.dtd">
<svg version="1.0" xmlns="http://www.w3.org/2000/svg"
 width="2244.000000pt" height="1825.000000pt" viewBox="0 0 2244.000000 1825.000000"
 preserveAspectRatio="xMidYMid meet">
<metadata>
Created by potrace 1.16, written by Peter Selinger 2001-2019
</metadata>
<g transform="translate(0.000000,1825.000000) scale(0.100000,-0.100000)"
fill="#000000" stroke="none">
<path d="M12669 17665 c-77 -55 -89 -59 -189 -58 -52 0 -178 8 -280 18 -148
14 -241 16 -465 12 -375 -8 -689 -40 -1160 -118 -517 -86 -615 -117 -744 -232
-86 -77 -145 -106 -242 -118 -99 -12 -183 -39 -264 -84 -84 -47 -215 -89 -393
-125 -268 -54 -374 -111 -632 -337 -171 -151 -453 -442 -521 -539 -62 -87 -71
-104 -124 -217 -45 -97 -168 -278 -284 -419 -167 -203 -235 -323 -276 -486
-31 -123 -69 -215 -137 -330 -101 -170 -205 -419 -282 -673 -44 -147 -63 -243
-76 -389 -12 -139 -39 -293 -86 -494 -47 -204 -73 -369 -84 -543 -13 -205 -31
-272 -153 -543 -161 -361 -190 -515 -208 -1130 -12 -389 -6 -1109 12 -1345 18
-259 51 -409 115 -539 46 -91 75 -132 227 -321 189 -235 226 -322 227 -540 0
-98 42 -375 100 -664 80 -402 118 -653 140 -936 25 -316 82 -484 234 -688 36
-48 70 -105 76 -125 48 -174 -93 -1668 -179 -1885 -15 -39 -36 -43 -72 -13
-17 14 -38 26 -48 26 -23 0 -66 -114 -218 -575 -282 -862 -458 -1355 -611
-1720 -99 -233 -117 -299 -101 -358 7 -26 11 -134 10 -292 -1 -500 26 -810 77
-868 18 -20 91 -24 110 -5 20 20 14 85 -27 268 -60 269 -66 312 -66 485 0 136
4 174 24 249 31 120 73 216 159 364 91 160 128 261 142 394 23 226 175 786
364 1345 77 225 135 373 162 408 18 24 45 11 54 -25 8 -33 36 -49 54 -30 35
35 94 263 145 560 103 595 145 1253 123 1921 -23 678 -76 1166 -183 1704 -28
137 -53 284 -56 327 l-6 78 34 0 c64 0 476 -120 490 -142 11 -18 32 -578 26
-700 -4 -68 -13 -145 -21 -173 -47 -157 -78 -808 -79 -1620 0 -546 5 -643 44
-759 30 -88 79 -163 178 -274 119 -133 223 -262 281 -347 71 -105 157 -210
262 -322 109 -116 189 -223 283 -383 170 -288 225 -362 245 -330 5 8 7 31 4
50 -44 262 -202 516 -565 909 -541 586 -612 706 -640 1090 -15 209 3 676 41
1056 24 238 44 344 78 415 26 54 26 60 30 295 2 132 -3 449 -12 705 -9 256
-16 484 -16 508 l0 42 -75 0 c-361 0 -636 120 -902 393 -179 185 -298 360
-470 697 l-90 175 8 410 c13 631 28 1082 40 1165 17 120 45 220 115 403 83
218 169 397 223 464 80 101 228 157 411 157 207 0 290 -58 700 -492 140 -148
179 -173 166 -109 -24 124 -281 470 -421 567 -115 79 -201 105 -405 121 -159
12 -263 8 -328 -15 -57 -21 -211 -127 -261 -181 -55 -60 -82 -119 -124 -267
-37 -130 -64 -195 -90 -216 -55 -46 -4 223 74 397 96 212 280 401 490 500 112
54 183 72 306 78 277 15 490 -104 670 -372 33 -50 75 -119 93 -155 88 -174
171 -282 305 -393 349 -289 553 -546 715 -896 l84 -184 136 6 c74 4 235 10
356 13 l222 7 7 131 c26 507 103 842 272 1180 176 352 407 621 818 952 186
149 282 239 331 310 l39 56 0 252 c0 138 -4 355 -9 481 -14 364 -2 386 254
439 228 48 311 86 501 231 305 233 393 286 510 311 128 27 178 15 649 -156
195 -71 389 -138 430 -149 109 -30 359 -68 560 -86 414 -36 484 -47 574 -88
29 -14 166 -102 304 -196 155 -106 279 -183 323 -202 281 -115 879 -239 1163
-239 39 0 112 -9 161 -19 406 -84 713 -395 875 -889 32 -97 102 -418 187 -847
7 -39 16 -175 20 -310 9 -349 -13 -527 -72 -601 l-23 -29 -37 19 c-51 28 -183
135 -374 305 -437 389 -637 507 -898 528 l-73 6 0 -40 c0 -21 14 -79 30 -129
42 -122 67 -225 78 -316 16 -123 60 -194 254 -407 251 -275 358 -407 358 -441
0 -25 -115 -81 -300 -146 -368 -129 -588 -250 -745 -408 -110 -111 -171 -220
-211 -377 -20 -77 -15 -142 22 -289 31 -125 36 -206 14 -221 -21 -14 -70 -3
-96 22 -46 43 -57 186 -28 378 30 203 79 366 187 611 75 171 94 234 77 254
-16 20 -59 20 -87 1 -33 -23 -110 -152 -152 -257 -76 -187 -110 -361 -118
-604 -13 -387 62 -801 232 -1289 166 -474 188 -546 188 -615 0 -44 -8 -90 -26
-145 -31 -91 -36 -172 -12 -182 22 -8 51 21 103 102 113 176 147 168 141 -34
-4 -107 -7 -123 -34 -176 -22 -43 -47 -71 -93 -107 -35 -26 -72 -48 -83 -48
-24 0 -43 44 -34 78 3 13 1 40 -6 59 -20 62 -101 77 -184 35 -93 -46 -152
-112 -141 -157 14 -54 191 -100 357 -93 89 3 103 7 180 45 106 53 136 83 149
152 13 69 13 218 -1 301 -13 84 -34 129 -113 247 -128 193 -205 365 -301 668
-94 298 -155 549 -137 567 24 24 297 -240 402 -389 268 -381 498 -909 582
-1333 33 -171 49 -220 72 -220 26 0 39 41 44 140 19 411 -250 1025 -697 1588
-146 184 -241 315 -241 333 0 13 103 -26 260 -101 168 -80 349 -143 478 -166
101 -18 283 -20 361 -5 122 24 181 5 257 -86 50 -59 67 -90 60 -109 -8 -22
-41 -17 -129 21 -45 19 -93 36 -107 37 -22 3 -25 -1 -28 -34 -3 -31 3 -43 36
-76 21 -21 74 -60 118 -87 115 -70 156 -106 186 -162 26 -47 209 -676 243
-833 25 -116 30 -271 11 -358 -54 -256 -413 -946 -786 -1512 -231 -349 -341
-484 -825 -1010 -419 -456 -496 -549 -640 -785 -115 -188 -127 -238 -145 -600
-25 -496 -76 -660 -274 -872 -192 -206 -422 -358 -721 -477 -186 -74 -226 -82
-334 -67 -133 19 -629 128 -754 166 -453 137 -813 384 -1172 803 -74 86 -166
172 -186 172 -33 0 -9 -67 66 -191 162 -265 363 -454 678 -634 231 -132 513
-238 922 -344 292 -76 275 -71 275 -88 0 -7 -101 -114 -224 -236 -215 -214
-285 -299 -272 -332 17 -45 92 2 362 227 272 227 339 272 466 312 48 16 122
48 165 73 122 70 213 114 229 111 10 -2 -2 -40 -48 -148 -87 -202 -448 -924
-553 -1105 -98 -169 -145 -262 -145 -287 0 -47 82 6 201 129 122 126 155 184
289 504 88 209 171 382 240 497 54 92 126 173 146 165 24 -9 137 -157 248
-323 121 -183 207 -327 301 -505 171 -327 280 -484 312 -451 22 21 -97 373
-196 582 -66 137 -120 220 -253 386 -169 211 -243 349 -260 486 -10 82 -29
119 -64 128 -13 3 -24 10 -24 15 0 13 61 55 191 132 167 99 235 157 280 242
98 180 187 539 224 905 29 279 56 363 180 555 112 174 395 539 729 940 633
760 1002 1301 1298 1900 149 301 172 401 173 730 0 261 -3 277 -112 605 -84
256 -117 376 -138 505 -47 288 20 462 257 663 114 96 156 158 169 246 14 99
51 202 134 372 96 197 116 258 122 369 9 157 -23 242 -191 510 -59 94 -124
204 -144 245 -32 66 -37 83 -36 145 1 83 27 181 57 213 16 17 32 22 71 22 28
0 56 4 63 8 19 12 41 74 53 148 16 107 48 192 86 232 19 20 34 47 34 60 0 13
-12 68 -26 123 -31 120 -28 146 27 254 21 43 39 86 39 96 0 10 -30 75 -66 144
-36 70 -63 133 -60 141 3 8 19 14 41 14 22 0 38 6 41 15 3 8 -9 57 -26 110
-38 110 -34 125 34 125 62 0 67 8 64 81 l-3 64 47 3 c26 2 52 10 59 18 7 9 15
64 19 137 4 67 12 132 19 144 14 27 44 43 136 73 42 13 79 32 94 48 22 24 23
31 17 107 -21 272 -20 292 33 435 26 69 28 216 6 410 -41 359 -73 442 -138
359 -31 -40 -42 -27 -62 75 -21 110 -38 136 -112 166 -80 32 -110 62 -129 127
-21 71 -70 113 -226 189 -135 67 -198 117 -198 156 0 56 -48 77 -176 78 -45 0
-77 5 -90 14 -19 14 -19 16 5 78 13 35 28 84 34 111 16 70 2 79 -121 87 -106
6 -152 24 -152 59 0 18 33 73 75 123 30 35 40 80 24 110 -19 36 -29 39 -99 32
-55 -5 -69 -3 -88 13 l-22 18 30 63 c34 71 37 100 14 109 -8 3 -65 -2 -125
-12 -140 -23 -145 -20 -123 75 25 108 20 113 -138 149 -110 26 -158 46 -158
66 0 8 14 43 31 76 16 33 29 70 27 82 -3 25 -9 25 -159 12 -113 -10 -139 -1
-259 96 -125 101 -239 179 -260 179 -24 0 -81 44 -197 152 -160 150 -229 186
-588 308 -272 92 -472 178 -659 283 -143 81 -233 117 -363 147 -178 42 -296
51 -758 60 -247 5 -472 14 -500 19 -27 5 -82 10 -121 10 -60 1 -76 -3 -105
-24z m4328 -7524 c169 -124 356 -298 456 -422 62 -77 134 -205 164 -292 22
-66 28 -100 28 -172 0 -119 -25 -174 -121 -267 -38 -38 -71 -68 -74 -68 -3 0
-45 57 -95 127 -99 138 -215 261 -320 340 -211 158 -655 301 -1000 322 -178
11 -201 29 -123 96 143 121 487 274 823 364 160 43 168 42 262 -28z m-639
-786 c166 -34 441 -202 644 -393 91 -86 98 -99 65 -127 -38 -33 -161 -81 -257
-101 -214 -43 -500 25 -720 171 -124 82 -289 277 -306 360 -8 43 20 74 81 90
73 20 394 19 493 0z"/>
<path d="M14303 12070 c-96 -14 -132 -34 -448 -240 l-180 -118 -345 -5 c-356
-6 -458 -14 -654 -57 -283 -62 -525 -189 -663 -348 -29 -33 -74 -74 -99 -91
-40 -26 -57 -31 -108 -31 -81 0 -121 -12 -195 -60 -74 -48 -161 -127 -161
-146 0 -22 83 -17 163 10 40 13 119 47 176 75 57 28 110 51 117 51 7 0 24 -33
39 -72 41 -111 84 -201 108 -226 75 -81 174 -68 374 47 176 102 184 104 443
108 124 2 392 0 595 -5 l370 -8 265 131 c146 73 296 144 334 159 125 50 178
56 556 66 195 5 379 14 409 19 69 11 85 30 76 90 -27 184 -252 439 -477 541
-126 56 -293 94 -463 105 -55 3 -118 7 -140 9 -22 2 -64 0 -92 -4z"/>
<path d="M11690 10790 c0 -29 111 -138 215 -212 177 -125 489 -295 681 -371
124 -50 229 -73 434 -97 314 -36 473 -74 812 -194 119 -42 226 -76 236 -76
108 0 -18 299 -170 403 -61 42 -148 74 -221 82 -127 14 -137 16 -137 31 0 8
15 23 33 35 81 51 271 -24 456 -182 100 -85 162 -129 184 -129 18 0 19 5 14
54 -15 149 -163 284 -376 341 -169 46 -335 26 -856 -101 l-313 -76 -163 82
c-203 103 -487 256 -596 321 -80 48 -165 90 -210 104 -19 5 -23 2 -23 -15z"/>
<path d="M13289 8280 c-87 -15 -354 -92 -443 -127 -149 -59 -284 -147 -486
-319 -582 -493 -933 -1254 -918 -1990 3 -190 12 -221 49 -176 34 42 62 176 84
397 37 380 92 593 212 827 208 409 680 901 1078 1127 112 63 218 102 358 131
113 24 170 52 175 85 5 43 -31 59 -109 45z"/>
<path d="M13624 8110 c-39 -4 -81 -13 -92 -19 -60 -32 -113 -198 -114 -358 -1
-102 -1 -104 41 -189 49 -99 138 -196 212 -232 53 -26 93 -27 340 -11 362 23
644 -33 739 -149 15 -19 36 -59 46 -90 30 -96 46 -112 94 -87 39 20 70 74 70
122 0 140 -308 306 -636 345 -134 15 -235 1 -345 -47 -100 -44 -146 -46 -191
-7 -18 16 -67 54 -108 84 -88 65 -100 78 -131 138 -31 62 -32 156 0 227 26 60
106 140 172 173 55 29 121 29 246 1 150 -34 184 -27 169 33 -8 33 -68 55 -185
66 -109 11 -224 11 -327 0z"/>
<path d="M10747 7538 c-93 -123 -197 -794 -197 -1266 0 -340 14 -405 198 -939
114 -330 228 -687 307 -968 118 -415 244 -728 334 -827 39 -45 51 -47 51 -12
0 62 -40 195 -295 984 -487 1505 -493 1526 -502 1812 -6 190 5 292 63 553 95
435 125 611 110 668 -9 37 -39 35 -69 -5z"/>
<path d="M11341 7027 c-45 -56 -109 -348 -145 -677 -97 -867 23 -1861 281
-2330 99 -179 311 -457 401 -526 86 -65 129 -26 79 73 -32 62 -90 140 -211
283 -228 268 -331 481 -400 823 -56 276 -60 338 -61 812 0 572 23 876 90 1208
46 226 52 289 31 322 -18 27 -47 33 -65 12z"/>
<path d="M16342 6848 c-7 -7 -12 -19 -12 -28 0 -22 58 -141 110 -225 88 -144
125 -264 124 -405 -1 -119 -27 -216 -93 -348 -94 -186 -175 -286 -521 -637
-263 -266 -331 -342 -446 -497 -200 -269 -342 -563 -479 -990 -61 -192 -115
-396 -115 -434 0 -38 29 -42 57 -8 38 46 136 252 213 449 266 677 434 940 940
1470 304 319 387 420 450 549 95 192 136 489 91 666 -12 49 -47 137 -82 208
-90 182 -189 278 -237 230z"/>
<path d="M12573 6594 c-95 -16 -279 -75 -414 -134 -256 -111 -389 -233 -440
-402 -19 -61 -21 -86 -16 -187 9 -194 86 -428 251 -766 186 -378 316 -515 652
-683 523 -262 1069 -392 1649 -393 292 -1 428 19 570 85 147 69 241 163 375
376 84 133 190 278 268 368 79 91 140 188 159 252 31 108 68 157 166 216 68
41 122 124 137 211 47 266 -164 479 -657 667 -358 135 -1144 329 -1503 371
-316 36 -1028 48 -1197 19z m867 -75 c292 -20 578 -71 1010 -179 586 -147 874
-253 1105 -408 215 -144 297 -295 219 -403 -16 -22 -42 -48 -57 -57 -39 -24
-50 -7 -46 70 1 35 2 90 1 123 -2 72 -14 86 -106 114 -58 18 -111 30 -411 95
-236 51 -552 140 -1075 304 -446 140 -722 214 -965 257 -161 29 -275 60 -275
75 0 29 260 32 600 9z m789 -615 c65 -19 125 -71 147 -130 14 -36 16 -64 11
-146 -7 -112 1 -145 33 -128 23 12 65 100 80 165 22 99 62 132 147 122 97 -11
129 -93 120 -302 -8 -198 -35 -230 -187 -229 -94 0 -131 13 -193 66 l-39 33
-96 -4 c-209 -8 -210 -8 -234 16 -34 35 -35 116 -3 280 37 185 58 241 99 259
40 17 52 17 115 -2z m-2119 -571 c30 -20 122 -86 204 -146 170 -125 313 -215
469 -293 475 -239 1058 -377 1602 -378 189 -1 228 2 273 17 75 26 208 118 341
233 333 291 414 355 428 341 24 -25 -163 -316 -373 -579 -175 -217 -290 -314
-424 -356 -81 -25 -653 -24 -855 1 -612 78 -1135 278 -1391 532 -144 142 -354
521 -354 637 0 37 14 36 80 -9z"/>
<path d="M6314 2654 c-102 -72 -122 -92 -203 -194 -76 -95 -141 -191 -221
-325 -131 -218 -290 -391 -470 -510 -91 -61 -149 -93 -490 -274 -189 -101
-362 -214 -434 -285 -94 -91 -210 -297 -273 -485 -27 -81 -22 -121 16 -121 33
0 78 67 168 250 103 207 140 250 278 324 276 148 434 247 630 396 397 301 738
654 976 1008 180 269 187 333 23 216z"/>
</g>
</svg>
